<svg xmlns="http://www.w3.org/2000/svg" width="1208" height="380" viewBox="0 0 1208 380" font-family="-apple-system,Segoe UI,Roboto,sans-serif">
<rect width="1208" height="380" fill="#ffffff"/>
<text x="56" y="28" font-size="16" font-weight="700" fill="#1e293b">Median latency by task (ms, lower is better)</text>
<line x1="56" y1="284" x2="1188" y2="284" stroke="#e2e8f0" stroke-width="1"/>
<text x="48" y="288" font-size="10" text-anchor="end" fill="#64748b">0</text>
<line x1="56" y1="237.6" x2="1188" y2="237.6" stroke="#e2e8f0" stroke-width="1"/>
<text x="48" y="241.6" font-size="10" text-anchor="end" fill="#64748b">400</text>
<line x1="56" y1="191.2" x2="1188" y2="191.2" stroke="#e2e8f0" stroke-width="1"/>
<text x="48" y="195.2" font-size="10" text-anchor="end" fill="#64748b">800</text>
<line x1="56" y1="144.8" x2="1188" y2="144.8" stroke="#e2e8f0" stroke-width="1"/>
<text x="48" y="148.8" font-size="10" text-anchor="end" fill="#64748b">1.2k</text>
<line x1="56" y1="98.4" x2="1188" y2="98.4" stroke="#e2e8f0" stroke-width="1"/>
<text x="48" y="102.4" font-size="10" text-anchor="end" fill="#64748b">1.6k</text>
<line x1="56" y1="52" x2="1188" y2="52" stroke="#e2e8f0" stroke-width="1"/>
<text x="48" y="56" font-size="10" text-anchor="end" fill="#64748b">2.0k</text>
<rect x="65" y="266.368" width="32.53846153846154" height="17.632" fill="#0f766e" rx="2"/>
<text x="81.26923076923077" y="263.368" font-size="9" text-anchor="middle" fill="#1e293b">152</text>
<rect x="101.53846153846155" y="237.02" width="32.53846153846154" height="46.98" fill="#4338ca" rx="2"/>
<text x="117.80769230769232" y="234.02" font-size="9" text-anchor="middle" fill="#1e293b">405</text>
<text x="99.53846153846155" y="298" font-size="10" text-anchor="end" fill="#1e293b" transform="rotate(-35 99.53846153846155 298)">nav-basic</text>
<rect x="152.0769230769231" y="261.032" width="32.53846153846154" height="22.968" fill="#0f766e" rx="2"/>
<text x="168.34615384615387" y="258.032" font-size="9" text-anchor="middle" fill="#1e293b">198</text>
<rect x="188.61538461538464" y="170.784" width="32.53846153846154" height="113.216" fill="#4338ca" rx="2"/>
<text x="204.88461538461542" y="167.784" font-size="9" text-anchor="middle" fill="#1e293b">976</text>
<text x="186.61538461538464" y="298" font-size="10" text-anchor="end" fill="#1e293b" transform="rotate(-35 186.61538461538464 298)">search-type-submit</text>
<rect x="239.15384615384616" y="247.924" width="32.53846153846154" height="36.076" fill="#0f766e" rx="2"/>
<text x="255.42307692307693" y="244.924" font-size="9" text-anchor="middle" fill="#1e293b">311</text>
<rect x="275.6923076923077" y="156.168" width="32.53846153846154" height="127.832" fill="#4338ca" rx="2"/>
<text x="291.96153846153845" y="153.168" font-size="9" text-anchor="middle" fill="#1e293b">1102</text>
<text x="273.6923076923077" y="298" font-size="10" text-anchor="end" fill="#1e293b" transform="rotate(-35 273.6923076923077 298)">login-fill-form</text>
<rect x="326.2307692307692" y="261.264" width="32.53846153846154" height="22.736" fill="#0f766e" rx="2"/>
<text x="342.5" y="258.264" font-size="9" text-anchor="middle" fill="#1e293b">196</text>
<rect x="362.7692307692308" y="228.088" width="32.53846153846154" height="55.912" fill="#4338ca" rx="2"/>
<text x="379.03846153846155" y="225.088" font-size="9" text-anchor="middle" fill="#1e293b">482</text>
<text x="360.7692307692308" y="298" font-size="10" text-anchor="end" fill="#1e293b" transform="rotate(-35 360.7692307692308 298)">select-option</text>
<rect x="413.3076923076923" y="259.524" width="32.53846153846154" height="24.476" fill="#0f766e" rx="2"/>
<text x="429.5769230769231" y="256.524" font-size="9" text-anchor="middle" fill="#1e293b">211</text>
<rect x="449.84615384615387" y="172.40800000000002" width="32.53846153846154" height="111.592" fill="#4338ca" rx="2"/>
<text x="466.11538461538464" y="169.40800000000002" font-size="9" text-anchor="middle" fill="#1e293b">962</text>
<text x="447.84615384615387" y="298" font-size="10" text-anchor="end" fill="#1e293b" transform="rotate(-35 447.84615384615387 298)">click-button</text>
<rect x="500.3846153846154" y="258.712" width="32.53846153846154" height="25.288" fill="#0f766e" rx="2"/>
<text x="516.6538461538462" y="255.712" font-size="9" text-anchor="middle" fill="#1e293b">218</text>
<rect x="536.9230769230769" y="227.856" width="32.53846153846154" height="56.144" fill="#4338ca" rx="2"/>
<text x="553.1923076923076" y="224.856" font-size="9" text-anchor="middle" fill="#1e293b">484</text>
<text x="534.9230769230769" y="298" font-size="10" text-anchor="end" fill="#1e293b" transform="rotate(-35 534.9230769230769 298)">hover-reveal</text>
<rect x="587.4615384615385" y="171.94400000000002" width="32.53846153846154" height="112.056" fill="#0f766e" rx="2"/>
<text x="603.7307692307692" y="168.94400000000002" font-size="9" text-anchor="middle" fill="#1e293b">966</text>
<rect x="624" y="141.9" width="32.53846153846154" height="142.1" fill="#4338ca" rx="2"/>
<text x="640.2692307692307" y="138.9" font-size="9" text-anchor="middle" fill="#1e293b">1225</text>
<text x="622" y="298" font-size="10" text-anchor="end" fill="#1e293b" transform="rotate(-35 622 298)">wait-for-dynamic</text>
<rect x="674.5384615384615" y="257.668" width="32.53846153846154" height="26.332" fill="#0f766e" rx="2"/>
<text x="690.8076923076923" y="254.668" font-size="9" text-anchor="middle" fill="#1e293b">227</text>
<rect x="711.0769230769231" y="166.02800000000002" width="32.53846153846154" height="117.972" fill="#4338ca" rx="2"/>
<text x="727.3461538461538" y="163.02800000000002" font-size="9" text-anchor="middle" fill="#1e293b">1017</text>
<text x="709.0769230769231" y="298" font-size="10" text-anchor="end" fill="#1e293b" transform="rotate(-35 709.0769230769231 298)">tabs-open</text>
<rect x="761.6153846153846" y="257.552" width="32.53846153846154" height="26.448" fill="#0f766e" rx="2"/>
<text x="777.8846153846154" y="254.55200000000002" font-size="9" text-anchor="middle" fill="#1e293b">228</text>
<rect x="798.1538461538462" y="167.88400000000001" width="32.53846153846154" height="116.116" fill="#4338ca" rx="2"/>
<text x="814.4230769230769" y="164.88400000000001" font-size="9" text-anchor="middle" fill="#1e293b">1001</text>
<text x="796.1538461538462" y="298" font-size="10" text-anchor="end" fill="#1e293b" transform="rotate(-35 796.1538461538462 298)">dialog-confirm</text>
<rect x="848.6923076923077" y="266.716" width="32.53846153846154" height="17.284" fill="#0f766e" rx="2"/>
<text x="864.9615384615385" y="263.716" font-size="9" text-anchor="middle" fill="#1e293b">149</text>
<rect x="885.2307692307693" y="231.8" width="32.53846153846154" height="52.2" fill="#4338ca" rx="2"/>
<text x="901.5" y="228.8" font-size="9" text-anchor="middle" fill="#1e293b">450</text>
<text x="883.2307692307693" y="298" font-size="10" text-anchor="end" fill="#1e293b" transform="rotate(-35 883.2307692307693 298)">console-capture</text>
<rect x="935.7692307692308" y="265.788" width="32.53846153846154" height="18.212" fill="#0f766e" rx="2"/>
<text x="952.0384615384615" y="262.788" font-size="9" text-anchor="middle" fill="#1e293b">157</text>
<rect x="972.3076923076924" y="235.86" width="32.53846153846154" height="48.14" fill="#4338ca" rx="2"/>
<text x="988.5769230769231" y="232.86" font-size="9" text-anchor="middle" fill="#1e293b">415</text>
<text x="970.3076923076924" y="298" font-size="10" text-anchor="end" fill="#1e293b" transform="rotate(-35 970.3076923076924 298)">network-capture</text>
<rect x="1022.8461538461539" y="261.96" width="32.53846153846154" height="22.04" fill="#0f766e" rx="2"/>
<text x="1039.1153846153848" y="258.96" font-size="9" text-anchor="middle" fill="#1e293b">190</text>
<rect x="1059.3846153846155" y="225.072" width="32.53846153846154" height="58.928" fill="#4338ca" rx="2"/>
<text x="1075.6538461538462" y="222.072" font-size="9" text-anchor="middle" fill="#1e293b">508</text>
<text x="1057.3846153846155" y="298" font-size="10" text-anchor="end" fill="#1e293b" transform="rotate(-35 1057.3846153846155 298)">screenshot</text>
<rect x="1109.923076923077" y="266.02" width="32.53846153846154" height="17.98" fill="#0f766e" rx="2"/>
<text x="1126.1923076923076" y="263.02" font-size="9" text-anchor="middle" fill="#1e293b">155</text>
<rect x="1146.4615384615383" y="173.8" width="32.53846153846154" height="110.2" fill="#4338ca" rx="2"/>
<text x="1162.730769230769" y="170.8" font-size="9" text-anchor="middle" fill="#1e293b">950</text>
<text x="1144.4615384615383" y="298" font-size="10" text-anchor="end" fill="#1e293b" transform="rotate(-35 1144.4615384615383 298)">evaluate</text>
<rect x="56" y="351" width="11" height="11" fill="#0f766e" rx="2"/>
<text x="72" y="360" font-size="11" fill="#1e293b">laya (Assist)</text>
<rect x="177" y="351" width="11" height="11" fill="#4338ca" rx="2"/>
<text x="193" y="360" font-size="11" fill="#1e293b">Playwright</text>
</svg>